<?xml version="1.0" encoding="utf-8"?>
<!-- Generator: Adobe Illustrator 22.1.0, SVG Export Plug-In . SVG Version: 6.00 Build 0)  -->
<svg version="1.1" id="Logo_WatchNOW" xmlns="http://www.w3.org/2000/svg" xmlns:xlink="http://www.w3.org/1999/xlink" x="0px"
	 y="0px" viewBox="0 0 450 350" style="enable-background:new 0 0 450 350;" xml:space="preserve">
<style type="text/css">
	.st0{fill:#76669E;}
	.st1{fill:#AFAFAF;}
	.st2{fill:#1E1E1E;}
	.st3{fill:#444444;}
	.st4{fill:#FFFFFF;}
	.st5{fill:#EDEDED;}
	.st6{fill:#D1D1D1;}
	.st7{fill:#959DC1;}
	.st8{fill:#DAE1E5;}
	.st9{fill:#E2DA7A;}
	.st10{fill:#1D1B2D;}
	.st11{fill:#737A93;}
	.st12{display:none;fill:#3251A7;stroke:#1A1A1A;stroke-width:4;stroke-linecap:round;stroke-miterlimit:10;}
	.st13{display:none;fill:none;stroke:#F8FBE7;stroke-width:3;}
	.st14{display:none;fill:none;stroke:#1A1A1A;stroke-width:3;stroke-linecap:round;stroke-miterlimit:10;}
	.st15{display:none;}
	.st16{display:inline;}
	.st17{fill-rule:evenodd;clip-rule:evenodd;fill:#FFFFE8;stroke:#231F20;stroke-width:2;stroke-miterlimit:10;}
	.st18{fill-rule:evenodd;clip-rule:evenodd;fill:#1A1A1A;stroke:#231F20;stroke-width:2;stroke-miterlimit:10;}
	.st19{fill:#232323;}
	.st20{fill:#1A1A1A;}
	.st21{fill:none;stroke:#110740;stroke-width:1.5;stroke-miterlimit:10;}
	.st22{opacity:0.99;}
	.st23{fill:url(#SVGID_1_);stroke:#333656;stroke-width:20;stroke-miterlimit:10;}
	.st24{fill:#4D4247;}
	.st25{fill:#F2FCFF;}
	.st26{fill:url(#SVGID_2_);stroke:#333656;stroke-width:20;stroke-miterlimit:10;}
	.st27{fill:#FF0000;stroke:#231F20;stroke-width:15;stroke-miterlimit:10;}
	.st28{fill:none;stroke:#FF0000;stroke-width:40;stroke-miterlimit:10;}
	.st29{fill:#FF0000;}
	.st30{fill:none;stroke:#231F20;stroke-width:4;stroke-miterlimit:10;}
	.st31{fill:none;stroke:#1A1A1A;stroke-width:4;stroke-miterlimit:10;}
	.st32{fill:url(#SVGID_3_);}
	.st33{fill:url(#SVGID_4_);}
	.st34{fill:url(#SVGID_5_);}
	.st35{fill:url(#SVGID_6_);}
	.st36{fill:url(#SVGID_7_);}
	.st37{fill:#FFFFFF;stroke:#1A1A1A;stroke-width:3;stroke-miterlimit:10;}
	.st38{fill:#F2FCFF;stroke:#1A1A1A;stroke-width:3;stroke-miterlimit:10;}
	.st39{fill:none;stroke:#1A1A1A;stroke-width:3;stroke-linecap:round;stroke-linejoin:round;stroke-miterlimit:10;}
	.st40{fill:none;stroke:#1A1A1A;stroke-width:4;stroke-linecap:round;stroke-linejoin:round;stroke-miterlimit:10;}
	.st41{fill:url(#SVGID_8_);stroke:#333656;stroke-width:15;stroke-miterlimit:10;}
	.st42{fill:url(#SVGID_9_);stroke:#333656;stroke-width:15;stroke-miterlimit:10;}
</style>
<path class="st20" d="M293.1,185.8c0.3-25.9,0.6-51.8,0.9-77.8c-2.6,0-4.9-0.1-7.4-0.1c-0.3,29.7-0.6,59.4-1,89.1
	c4.3,0.8,7.8,0.4,11.3-3c12.7-12.4,25.7-24.5,38.6-36.6c0.5-0.5,1-1,1.5-1.6c-1.7-1.8-3.4-3.4-5.2-5.3c-12.6,12-25.3,23.9-37.9,35.8
	C293.6,186.1,293.4,185.9,293.1,185.8z"/>
<path class="st20" d="M155.7,186.7c0-26.9,0-52.8,0-78.9c2.5,0,4.8,0,7.4,0c0,29.7,0,59.3,0,89.2c-4,0.6-7.5,0.5-10.9-3
	c-12.2-12.6-24.8-24.8-37.3-37.1c-0.6-0.6-1.1-1.2-1.7-1.9c1.7-1.7,3.3-3.3,5.1-5.1C130.5,162,142.8,174,155.7,186.7z"/>
<path class="st20" d="M197,107.9c2.4,0,4.6,0,7,0c0,29.9,0,59.6,0,89.5c-2.3,0-4.6,0-7,0C197,167.6,197,137.9,197,107.9z"/>
<path class="st20" d="M244,107.9c2.4,0,4.6,0,7,0c0,29.9,0,59.6,0,89.5c-2.3,0-4.6,0-7,0C244,167.6,244,137.9,244,107.9z"/>
<path class="st20" d="M253.6,120.5c1.7,1.7,3.3,3.3,5,5c-21.1,21.1-42.1,42.1-63.3,63.3c-1.7-1.7-3.2-3.2-5-5
	C211.4,162.7,232.4,141.7,253.6,120.5z"/>
<g>
	<g>
		<path d="M150.2,210.2h0.9l1.3,10.6c0.1,1.3,0.3,2.4,0.4,3.7h0c0.3-1.3,0.5-2.4,0.8-3.7l1.5-6.6h0.9l1.5,6.6
			c0.3,1.3,0.5,2.4,0.8,3.7h0.1c0.1-1.3,0.2-2.4,0.4-3.7l1.3-10.6h0.8l-2,15.5h-1.1l-1.7-7.3c-0.2-0.9-0.4-1.8-0.5-2.7h-0.1
			c-0.2,0.9-0.3,1.8-0.6,2.7l-1.7,7.3h-1.1L150.2,210.2z"/>
		<path d="M172,210.2h0.9l4.4,15.5h-0.9l-2.5-9.1c-0.5-1.8-0.9-3.5-1.4-5.3h-0.1c-0.4,1.9-0.9,3.5-1.4,5.3l-2.5,9.1h-0.9L172,210.2z
			 M169.7,219.4h5.5v0.9h-5.5V219.4z"/>
		<path d="M188.9,211.1h-4.3v-0.9h9.5v0.9h-4.3v14.5h-0.9V211.1z"/>
		<path d="M202,217.9c0-4.9,2.1-8,5.3-8c1.4,0,2.6,0.9,3.2,1.8l-0.5,0.7c-0.7-0.9-1.6-1.6-2.7-1.6c-2.7,0-4.4,2.7-4.4,7
			c0,4.3,1.7,7.1,4.4,7.1c1.3,0,2.2-0.6,3.1-1.9l0.5,0.7c-0.9,1.4-2.1,2.2-3.7,2.2C204.1,226,202,222.8,202,217.9z"/>
		<path d="M219.2,210.2h0.9v6.8h6.2v-6.8h0.9v15.5h-0.9v-7.7h-6.2v7.7h-0.9V210.2z"/>
		<path d="M253.1,210.2h0.9l4.8,10.9l1.3,3.1h0c0-1.5-0.1-3-0.1-4.5v-9.5h0.8v15.5H260l-4.8-10.9l-1.3-3.1h0c0,1.5,0.1,2.9,0.1,4.4
			v9.6h-0.8V210.2z"/>
		<path d="M269.3,217.9c0-4.9,1.9-8,4.6-8c2.7,0,4.6,3.1,4.6,8c0,4.9-1.9,8.1-4.6,8.1C271.2,226,269.3,222.8,269.3,217.9z
			 M277.6,217.9c0-4.3-1.5-7-3.7-7c-2.2,0-3.7,2.7-3.7,7c0,4.3,1.5,7.1,3.7,7.1C276.1,225,277.6,222.2,277.6,217.9z"/>
		<path d="M285.4,210.2h0.9l1.3,10.6c0.1,1.3,0.3,2.4,0.4,3.7h0c0.3-1.3,0.5-2.4,0.8-3.7l1.5-6.6h0.9l1.5,6.6
			c0.3,1.3,0.5,2.4,0.8,3.7h0.1c0.1-1.3,0.2-2.4,0.4-3.7l1.3-10.6h0.8l-2,15.5h-1.1l-1.7-7.3c-0.2-0.9-0.4-1.8-0.5-2.7h-0.1
			c-0.2,0.9-0.3,1.8-0.6,2.7l-1.7,7.3h-1.1L285.4,210.2z"/>
	</g>
</g>
</svg>
