<?xml version="1.0" encoding="utf-8"?>
<!-- Generator: Adobe Illustrator 22.1.0, SVG Export Plug-In . SVG Version: 6.00 Build 0)  -->
<svg version="1.1" id="Logo_WatchNOW" xmlns="http://www.w3.org/2000/svg" xmlns:xlink="http://www.w3.org/1999/xlink" x="0px"
	 y="0px" viewBox="0 0 450 435.8" style="enable-background:new 0 0 450 435.8;" xml:space="preserve">
<style type="text/css">
	.st0{fill:#76669E;}
	.st1{fill:#AFAFAF;}
	.st2{fill:#1E1E1E;}
	.st3{fill:#444444;}
	.st4{fill:#FFFFFF;}
	.st5{fill:#EDEDED;}
	.st6{fill:#D1D1D1;}
	.st7{fill:#959DC1;}
	.st8{fill:#DAE1E5;}
	.st9{fill:#E2DA7A;}
	.st10{fill:#1D1B2D;}
	.st11{fill:#737A93;}
	.st12{display:none;fill:#3251A7;stroke:#1A1A1A;stroke-width:4;stroke-linecap:round;stroke-miterlimit:10;}
	.st13{display:none;fill:none;stroke:#F8FBE7;stroke-width:3;}
	.st14{display:none;fill:none;stroke:#1A1A1A;stroke-width:3;stroke-linecap:round;stroke-miterlimit:10;}
	.st15{display:none;}
	.st16{display:inline;}
	.st17{fill-rule:evenodd;clip-rule:evenodd;fill:#FFFFE8;stroke:#231F20;stroke-width:2;stroke-miterlimit:10;}
	.st18{fill-rule:evenodd;clip-rule:evenodd;fill:#1A1A1A;stroke:#231F20;stroke-width:2;stroke-miterlimit:10;}
	.st19{fill:#232323;}
	.st20{fill:#1A1A1A;}
	.st21{fill:none;stroke:#110740;stroke-width:1.5;stroke-miterlimit:10;}
	.st22{opacity:0.99;}
	.st23{fill:url(#SVGID_1_);stroke:#333656;stroke-width:20;stroke-miterlimit:10;}
	.st24{fill:#4D4247;}
	.st25{fill:#F2FCFF;}
	.st26{fill:url(#SVGID_2_);stroke:#333656;stroke-width:20;stroke-miterlimit:10;}
	.st27{fill:#FF0000;stroke:#231F20;stroke-width:15;stroke-miterlimit:10;}
	.st28{fill:none;stroke:#FF0000;stroke-width:40;stroke-miterlimit:10;}
	.st29{fill:#FF0000;}
	.st30{fill:none;stroke:#231F20;stroke-width:4;stroke-miterlimit:10;}
	.st31{fill:none;stroke:#1A1A1A;stroke-width:4;stroke-miterlimit:10;}
	.st32{fill:url(#SVGID_3_);}
	.st33{fill:url(#SVGID_4_);}
	.st34{fill:url(#SVGID_5_);}
	.st35{fill:url(#SVGID_6_);}
	.st36{fill:url(#SVGID_7_);}
	.st37{fill:#FFFFFF;stroke:#1A1A1A;stroke-width:3;stroke-miterlimit:10;}
	.st38{fill:#F2FCFF;stroke:#1A1A1A;stroke-width:3;stroke-miterlimit:10;}
	.st39{fill:none;stroke:#1A1A1A;stroke-width:3;stroke-linecap:round;stroke-linejoin:round;stroke-miterlimit:10;}
	.st40{fill:none;stroke:#1A1A1A;stroke-width:4;stroke-linecap:round;stroke-linejoin:round;stroke-miterlimit:10;}
	.st41{fill:url(#SVGID_8_);stroke:#333656;stroke-width:15;stroke-miterlimit:10;}
	.st42{fill:url(#SVGID_9_);stroke:#333656;stroke-width:15;stroke-miterlimit:10;}
</style>
<circle class="st19" cx="226.9" cy="219.9" r="194.2"/>
<g>
	<path class="st4" d="M371.5,163c-2.7,6.2-5.5,12.6-8.3,19c-0.6,1.4-1.2,2.8-1.8,4.2c-0.6,1.4-1.2,2.7-1.8,3.9
		c-3.2,7-6.3,13.8-9.4,20.2c-3,6.4-5.8,12.3-8.5,17.5c-7,13.5-14.6,26.8-22.6,39.9c-8.1,13.1-16.6,25.4-25.7,36.8
		c-0.6,0.8-1.2,1.6-1.8,2.3c-0.6,0.7-1.2,1.5-1.8,2.3c-3.4,3.6-7.3,7-11.6,10.3c-4.3,3.2-9,4.8-14,4.8c-0.8,0-1.6,0-2.4-0.2
		c-0.8-0.1-1.7-0.3-2.7-0.5c-5.8-1.6-9.9-4.8-12.1-9.5c-2.2-4.7-3.4-9.7-3.6-14.9c-0.2-1-0.3-2.1-0.2-3.2c0.1-1.1,0.2-2.2,0.2-3.2
		c0.8-9.5,1.8-19.5,2.9-30.2c1.1-10.7,2.4-21.6,3.8-32.9c-2.4,4.4-4.8,8.9-7.2,13.3c-2.4,4.4-4.9,8.8-7.5,13
		c-7.2,12.3-14.5,24.2-21.7,35.6s-14.5,22.2-21.7,32.3h-37.1c3.6-4.8,7.4-10.1,11.5-15.7c4-5.6,8-11.5,12.1-17.5c2-3,4-6.1,6-9.2
		c2-3.1,4-6.2,6-9.2c3.4-5.4,6.7-10.8,10-16c3.2-5.2,6.2-10.4,9.1-15.4c5.6-9.9,11.3-19.9,16.9-30.2c5.6-10.3,11.2-20.5,16.6-30.8
		c3-5.8,6-11.6,9.1-17.4c3-5.7,5.9-11.4,8.8-17.1H291c-0.4,3.8-0.9,8.1-1.5,12.7c-0.6,4.6-1.2,9.3-1.8,13.9c0,0.4-0.1,0.9-0.2,1.5
		c-0.1,0.6-0.2,1.1-0.2,1.5c-0.8,5.2-1.5,10.3-2.1,15.2c-0.6,4.9-1.2,9.3-1.8,13.1c-0.6,4.2-1.2,8.5-1.7,12.8
		c-0.5,4.3-1.1,8.7-1.7,13.1c-1,8.7-2,17.3-3,25.8c-1,8.6-1.9,17-2.7,25.2c7.4-10.1,14.6-20.7,21.4-31.9c6.8-11.2,13.2-22.6,19-34.3
		c6-11.9,11.7-23.7,16.9-35.5c5.2-11.8,10-22.9,14.2-33.4h32.9C376.7,150.9,374.2,156.8,371.5,163z"/>
</g>
<circle cx="171.1" cy="190.8" r="18.8"/>
<polygon class="st4" points="154.6,323.8 86.5,155.9 111,155.9 171.1,304.7 "/>
<circle class="st4" cx="171.1" cy="190.8" r="18.8"/>
</svg>
