<?xml version="1.0" encoding="utf-8"?>
<!-- Generator: Adobe Illustrator 22.1.0, SVG Export Plug-In . SVG Version: 6.00 Build 0)  -->
<svg version="1.1" id="Logo_WatchNOW" xmlns="http://www.w3.org/2000/svg" xmlns:xlink="http://www.w3.org/1999/xlink" x="0px"
	 y="0px" viewBox="0 0 450 350" style="enable-background:new 0 0 450 350;" xml:space="preserve">
<style type="text/css">
	.st0{fill:#76669E;}
	.st1{fill:#AFAFAF;}
	.st2{fill:#1E1E1E;}
	.st3{fill:#444444;}
	.st4{fill:#FFFFFF;}
	.st5{fill:#EDEDED;}
	.st6{fill:#D1D1D1;}
	.st7{fill:#959DC1;}
	.st8{fill:#DAE1E5;}
	.st9{fill:#E2DA7A;}
	.st10{fill:#1D1B2D;}
	.st11{fill:#737A93;}
	.st12{display:none;fill:#3251A7;stroke:#1A1A1A;stroke-width:4;stroke-linecap:round;stroke-miterlimit:10;}
	.st13{display:none;fill:none;stroke:#F8FBE7;stroke-width:3;}
	.st14{display:none;fill:none;stroke:#1A1A1A;stroke-width:3;stroke-linecap:round;stroke-miterlimit:10;}
	.st15{display:none;}
	.st16{display:inline;}
	.st17{fill-rule:evenodd;clip-rule:evenodd;fill:#FFFFE8;stroke:#231F20;stroke-width:2;stroke-miterlimit:10;}
	.st18{fill-rule:evenodd;clip-rule:evenodd;fill:#1A1A1A;stroke:#231F20;stroke-width:2;stroke-miterlimit:10;}
	.st19{fill:#232323;}
	.st20{fill:#1A1A1A;}
	.st21{fill:none;stroke:#110740;stroke-width:1.5;stroke-miterlimit:10;}
	.st22{opacity:0.99;}
	.st23{fill:url(#SVGID_1_);stroke:#333656;stroke-width:20;stroke-miterlimit:10;}
	.st24{fill:#4D4247;}
	.st25{fill:#F2FCFF;}
	.st26{fill:url(#SVGID_2_);stroke:#333656;stroke-width:20;stroke-miterlimit:10;}
	.st27{fill:#FF0000;stroke:#231F20;stroke-width:15;stroke-miterlimit:10;}
	.st28{fill:none;stroke:#FF0000;stroke-width:40;stroke-miterlimit:10;}
	.st29{fill:#FF0000;}
	.st30{fill:none;stroke:#231F20;stroke-width:4;stroke-miterlimit:10;}
	.st31{fill:none;stroke:#1A1A1A;stroke-width:4;stroke-miterlimit:10;}
	.st32{fill:url(#SVGID_3_);}
	.st33{fill:url(#SVGID_4_);}
	.st34{fill:url(#SVGID_5_);}
	.st35{fill:url(#SVGID_6_);}
	.st36{fill:url(#SVGID_7_);}
	.st37{fill:#FFFFFF;stroke:#1A1A1A;stroke-width:3;stroke-miterlimit:10;}
	.st38{fill:#F2FCFF;stroke:#1A1A1A;stroke-width:3;stroke-miterlimit:10;}
	.st39{fill:none;stroke:#1A1A1A;stroke-width:3;stroke-linecap:round;stroke-linejoin:round;stroke-miterlimit:10;}
	.st40{fill:none;stroke:#1A1A1A;stroke-width:4;stroke-linecap:round;stroke-linejoin:round;stroke-miterlimit:10;}
	.st41{fill:url(#SVGID_8_);stroke:#333656;stroke-width:15;stroke-miterlimit:10;}
	.st42{fill:url(#SVGID_9_);stroke:#333656;stroke-width:15;stroke-miterlimit:10;}
</style>
<path class="st19" d="M241.5,37.5c75.1-0.4,138.2,61.6,137.5,138.9c-0.7,74.2-61.7,135.8-137.1,136.1
	C165.7,312.8,103.4,250,104,173.9C104.5,99.3,165.8,37.1,241.5,37.5z M328,227.1c0.3-0.4,0.5-0.9,0.8-1.3c-3.9-3.6-7.8-7-11.5-10.7
	c-13.1-13-26.1-26.1-39.1-39.2c-3.5-3.5-3.4-3.6,0.2-7.2c10.4-10.4,20.8-20.8,31.2-31.3c3.6-3.6,7.1-7.3,11-11.3
	c-1.2-0.3-1.6-0.6-2.1-0.6c-11.1,0-22.1-0.1-33.2,0.1c-1.5,0-3.3,1.1-4.4,2.2c-7.5,7.5-14.8,15.1-22.3,22.6c-2.4,2.5-5,4.8-8.3,8
	c0-8.1,0-15,0-21.9c0-3.4,1-8.4-0.8-9.9c-2.1-1.9-6.8-1-10.3-1c-5.5-0.1-11.1,0-17.2,0c0,15.7,0,30.9,0,46.9c-1.5-1.4-2.2-2.1-3-2.9
	c-13.2-13.1-26.6-25.9-39.3-39.5c-4.8-5.1-9.8-4.8-15.7-4.2c0,33.9,0,67.5,0,101.6c7.9,0,15.6-0.1,23.3,0.1c2.8,0.1,3.6-1,3.5-3.7
	c-0.1-12.8-0.1-25.6-0.1-38.4c0-1.4,0-2.8,0-5c1.3,1,1.9,1.3,2.4,1.8c7.3,7.2,14.2,14.7,21.8,21.6c5.5,5,8.7,10.3,7.2,17.9
	c-0.1,0.7,0.1,1.5,0,2.2c-0.4,2.8,0.8,3.7,3.5,3.7c7-0.1,13.9-0.1,20.9,0c3,0.1,3.8-1,3.8-3.9c-0.2-8.1,0.1-16.2-0.1-24.3
	c-0.1-3.3,2.1-4.9,4.2-6.3c2.4-1.5,3.6,1,5,2.4c10.1,10,20.2,20.1,30.3,30.1c1,1,2.7,1.8,4.1,1.8c10.7,0.1,21.4,0.1,32.1,0.1
	C326.7,227.5,327.3,227.2,328,227.1z"/>
<path class="st4" d="M328,227.1c-0.7,0.1-1.4,0.3-2.1,0.3c-10.7,0-21.4,0.1-32.1-0.1c-1.4,0-3.1-0.8-4.1-1.8
	c-10.2-10-20.2-20-30.3-30.1c-1.4-1.4-2.6-4-5-2.4c-2.1,1.4-4.3,3-4.2,6.3c0.2,8.1-0.1,16.2,0.1,24.3c0.1,2.9-0.8,4-3.8,3.9
	c-7-0.2-13.9-0.2-20.9,0c-2.8,0.1-3.9-0.9-3.5-3.7c0.1-0.7-0.1-1.5,0-2.2c1.5-7.5-1.7-12.9-7.2-17.9c-7.6-6.8-14.6-14.4-21.8-21.6
	c-0.5-0.5-1.1-0.8-2.4-1.8c0,2.2,0,3.6,0,5c0,12.8-0.1,25.6,0.1,38.4c0,2.7-0.7,3.8-3.5,3.7c-7.7-0.2-15.4-0.1-23.3-0.1
	c0-34.1,0-67.7,0-101.6c5.9-0.6,10.8-0.9,15.7,4.2c12.7,13.5,26.2,26.4,39.3,39.5c0.8,0.7,1.5,1.5,3,2.9c0-16,0-31.1,0-46.9
	c6.1,0,11.7-0.1,17.2,0c3.6,0.1,8.2-0.8,10.3,1c1.8,1.6,0.7,6.5,0.8,9.9c0.1,6.9,0,13.9,0,21.9c3.3-3.2,5.9-5.5,8.3-8
	c7.4-7.5,14.8-15.1,22.3-22.6c1.1-1.1,2.9-2.2,4.4-2.2c11.1-0.2,22.1-0.1,33.2-0.1c0.5,0,0.9,0.2,2.1,0.6c-3.8,4-7.4,7.7-11,11.3
	c-10.4,10.4-20.8,20.9-31.2,31.3c-3.6,3.6-3.7,3.7-0.2,7.2c13,13.1,26,26.2,39.1,39.2c3.7,3.7,7.7,7.2,11.5,10.7
	C328.6,226.3,328.3,226.7,328,227.1z"/>
</svg>
